<?xml version="1.0" encoding="UTF-8" standalone="no"?>
<svg
   sodipodi:docname="drawing.svg"
   inkscape:version="1.3 (0e150ed6c4, 2023-07-21)"
   id="svg1266"
   version="1.1"
   viewBox="0 0 5.9949505 5.3705249"
   height="20.298046"
   width="22.658081"
   xml:space="preserve"
   xmlns:inkscape="http://www.inkscape.org/namespaces/inkscape"
   xmlns:sodipodi="http://sodipodi.sourceforge.net/DTD/sodipodi-0.dtd"
   xmlns="http://www.w3.org/2000/svg"
   xmlns:svg="http://www.w3.org/2000/svg"
   xmlns:rdf="http://www.w3.org/1999/02/22-rdf-syntax-ns#"
   xmlns:cc="http://creativecommons.org/ns#"
   xmlns:dc="http://purl.org/dc/elements/1.1/"><sodipodi:namedview
     inkscape:window-maximized="1"
     inkscape:window-y="-8"
     inkscape:window-x="-8"
     inkscape:window-height="1057"
     inkscape:window-width="1920"
     inkscape:guide-bbox="true"
     showguides="false"
     inkscape:snap-global="true"
     units="px"
     inkscape:snap-page="false"
     inkscape:snap-grids="true"
     id="base"
     pagecolor="#ffffff"
     bordercolor="#666666"
     borderopacity="1.0"
     inkscape:pageopacity="1"
     inkscape:pageshadow="2"
     inkscape:zoom="1"
     inkscape:cx="149.5"
     inkscape:cy="261"
     inkscape:document-units="px"
     inkscape:current-layer="layer1"
     inkscape:document-rotation="0"
     showgrid="true"
     showborder="false"
     inkscape:lockguides="false"
     inkscape:showpageshadow="2"
     inkscape:pagecheckerboard="0"
     inkscape:deskcolor="#d1d1d1"><inkscape:grid
       units="px"
       type="xygrid"
       id="grid1829"
       enabled="false"
       visible="true"
       empcolor="#454545"
       empopacity="0.25098039"
       color="#919191"
       opacity="0.1254902"
       empspacing="1"
       spacingx="2.6458333"
       spacingy="2.6458333"
       dotted="false"
       originx="-502.41552"
       originy="-42.182244" /><inkscape:grid
       enabled="false"
       units="px"
       gridanglez="30"
       gridanglex="30"
       spacingy="2.6458333"
       id="grid831"
       type="axonomgrid"
       originx="-502.41552"
       originy="-42.182244"
       visible="true" /><sodipodi:guide
       id="guide839"
       orientation="0,793.70081"
       position="-132.93077,308.16071"
       inkscape:locked="false" /><sodipodi:guide
       id="guide845"
       orientation="-1122.5197,0"
       position="-132.93077,11.160719"
       inkscape:locked="false" /></sodipodi:namedview><defs
     id="defs1260" /><metadata
     id="metadata1263"><rdf:RDF><cc:Work
         rdf:about=""><dc:format>image/svg+xml</dc:format><dc:type
           rdf:resource="http://purl.org/dc/dcmitype/StillImage" /></cc:Work></rdf:RDF></metadata><g
     style="opacity:1"
     inkscape:label="Layer 1"
     inkscape:groupmode="layer"
     id="layer1"
     transform="translate(-132.93077,-11.160719)"><path
       style="fill:#ff8050;fill-opacity:1;stroke-width:1"
       d="m 133.32691,16.517574 c -0.39303,-0.08073 -0.53026,-0.53402 -0.24317,-0.803224 0.15313,-0.143594 -0.006,-0.136047 2.84964,-0.135483 2.4885,5.31e-4 2.61227,0.0025 2.70172,0.04391 0.37645,0.174288 0.38969,0.657158 0.0234,0.854265 l -0.0938,0.05045 -2.57793,0.0034 c -1.41786,0.0019 -2.61484,-0.0041 -2.65996,-0.01339 z m -0.14279,-2.259281 c -0.0568,-0.02999 -0.13493,-0.09945 -0.17359,-0.154351 -0.0615,-0.08733 -0.0704,-0.119848 -0.0704,-0.259832 0,-0.139986 0.008,-0.172507 0.0704,-0.259834 0.0387,-0.0549 0.11673,-0.124361 0.17359,-0.154351 l 0.10325,-0.05453 h 2.64086 2.64087 l 0.10325,0.05453 c 0.0568,0.02999 0.13492,0.09945 0.1736,0.154351 0.0615,0.08733 0.0703,0.119848 0.0703,0.259834 0,0.139984 -0.008,0.172505 -0.0703,0.259832 -0.0387,0.0549 -0.11673,0.124361 -0.1736,0.154351 l -0.10325,0.05453 h -2.64087 -2.64086 z m 0.0374,-2.192858 c -0.37645,-0.174288 -0.3897,-0.657158 -0.0234,-0.854266 l 0.0938,-0.05045 h 2.63652 2.63651 l 0.0938,0.05045 c 0.36626,0.197108 0.35301,0.679978 -0.0234,0.854266 -0.0894,0.04143 -0.21275,0.0434 -2.70683,0.0434 -2.49407,0 -2.61734,-0.002 -2.70681,-0.0434 z"
       id="path5" /></g><inkscape:templateinfo><inkscape:name>dd</inkscape:name><inkscape:date>2021-10-06</inkscape:date></inkscape:templateinfo><inkscape:templateinfo><inkscape:name>dd</inkscape:name><inkscape:date>2021-10-06</inkscape:date></inkscape:templateinfo><inkscape:templateinfo><inkscape:name>df</inkscape:name><inkscape:date>2021-10-27</inkscape:date></inkscape:templateinfo></svg>
